<?xml version="1.0" encoding="UTF-8"?>
<svg xmlns="http://www.w3.org/2000/svg" xmlns:xlink="http://www.w3.org/1999/xlink" width="300pt" height="300pt" viewBox="0 0 300 300" version="1.1">
<g id="surface3">
<path style=" stroke:none;fill-rule:nonzero;fill:rgb(100%,100%,100%);fill-opacity:1;" d="M 0 0 C 0 0 300 0 300 0 C 300 0 300 300 300 300 C 300 300 0 300 0 300 C 0 300 0 0 0 0 Z "/>
<path style=" stroke:none;fill-rule:nonzero;fill:rgb(100%,100%,100%);fill-opacity:1;" d="M 10 10 C 10 10 290 10 290 10 C 290 10 290 290 290 290 C 290 290 10 290 10 290 C 10 290 10 10 10 10 Z "/>
<path style=" stroke:none;fill-rule:nonzero;fill:rgb(7.058824%,3.137255%,24.705882%);fill-opacity:0.607843;" d="M 239.757812 223.5 C 239.757812 223.5 239.757812 264.5 239.757812 264.5 C 239.757812 264.5 204.25 285 204.25 285 C 204.25 285 204.25 244 204.25 244 C 204.25 244 239.757812 223.5 239.757812 223.5 Z "/>
<path style=" stroke:none;fill-rule:nonzero;fill:rgb(7.058824%,3.137255%,24.705882%);fill-opacity:0.313725;" d="M 168.742188 223.5 C 168.742188 223.5 204.25 244 204.25 244 C 204.25 244 204.25 285 204.25 285 C 204.25 285 168.742188 264.5 168.742188 264.5 C 168.742188 264.5 168.742188 223.5 168.742188 223.5 Z "/>
<path style=" stroke:none;fill-rule:nonzero;fill:rgb(7.058824%,3.137255%,24.705882%);fill-opacity:0.784314;" d="M 168.742188 223.5 C 168.742188 223.5 204.25 203 204.25 203 C 204.25 203 239.757812 223.5 239.757812 223.5 C 239.757812 223.5 204.25 244 204.25 244 C 204.25 244 168.742188 223.5 168.742188 223.5 Z "/>
<path style=" stroke:none;fill-rule:nonzero;fill:rgb(100%,100%,100%);fill-opacity:1;" d="M 168.757812 223.5 C 168.757812 223.5 168.757812 264.5 168.757812 264.5 C 168.757812 264.5 133.25 285 133.25 285 C 133.25 285 133.25 244 133.25 244 C 133.25 244 168.757812 223.5 168.757812 223.5 Z "/>
<path style=" stroke:none;fill-rule:nonzero;fill:rgb(100%,100%,100%);fill-opacity:1;" d="M 97.742188 223.5 C 97.742188 223.5 133.25 244 133.25 244 C 133.25 244 133.25 285 133.25 285 C 133.25 285 97.742188 264.5 97.742188 264.5 C 97.742188 264.5 97.742188 223.5 97.742188 223.5 Z "/>
<path style=" stroke:none;fill-rule:nonzero;fill:rgb(100%,100%,100%);fill-opacity:1;" d="M 97.742188 223.5 C 97.742188 223.5 133.25 203 133.25 203 C 133.25 203 168.757812 223.5 168.757812 223.5 C 168.757812 223.5 133.25 244 133.25 244 C 133.25 244 97.742188 223.5 97.742188 223.5 Z "/>
<path style=" stroke:none;fill-rule:nonzero;fill:rgb(72.156863%,92.941176%,3.921569%);fill-opacity:0.607843;" d="M 97.757812 223.5 C 97.757812 223.5 97.757812 264.5 97.757812 264.5 C 97.757812 264.5 62.25 285 62.25 285 C 62.25 285 62.25 244 62.25 244 C 62.25 244 97.757812 223.5 97.757812 223.5 Z "/>
<path style=" stroke:none;fill-rule:nonzero;fill:rgb(72.156863%,92.941176%,3.921569%);fill-opacity:0.313725;" d="M 26.742188 223.5 C 26.742188 223.5 62.25 244 62.25 244 C 62.25 244 62.25 285 62.25 285 C 62.25 285 26.742188 264.5 26.742188 264.5 C 26.742188 264.5 26.742188 223.5 26.742188 223.5 Z "/>
<path style=" stroke:none;fill-rule:nonzero;fill:rgb(72.156863%,92.941176%,3.921569%);fill-opacity:0.784314;" d="M 26.742188 223.5 C 26.742188 223.5 62.25 203 62.25 203 C 62.25 203 97.757812 223.5 97.757812 223.5 C 97.757812 223.5 62.25 244 62.25 244 C 62.25 244 26.742188 223.5 26.742188 223.5 Z "/>
<path style=" stroke:none;fill-rule:nonzero;fill:rgb(34.117647%,15.686275%,81.568627%);fill-opacity:0.607843;" d="M 275.257812 162 C 275.257812 162 275.257812 203 275.257812 203 C 275.257812 203 239.75 223.5 239.75 223.5 C 239.75 223.5 239.75 182.5 239.75 182.5 C 239.75 182.5 275.257812 162 275.257812 162 Z "/>
<path style=" stroke:none;fill-rule:nonzero;fill:rgb(34.117647%,15.686275%,81.568627%);fill-opacity:0.313725;" d="M 204.242188 162 C 204.242188 162 239.75 182.5 239.75 182.5 C 239.75 182.5 239.75 223.5 239.75 223.5 C 239.75 223.5 204.242188 203 204.242188 203 C 204.242188 203 204.242188 162 204.242188 162 Z "/>
<path style=" stroke:none;fill-rule:nonzero;fill:rgb(34.117647%,15.686275%,81.568627%);fill-opacity:0.784314;" d="M 204.242188 162 C 204.242188 162 239.75 141.5 239.75 141.5 C 239.75 141.5 275.257812 162 275.257812 162 C 275.257812 162 239.75 182.5 239.75 182.5 C 239.75 182.5 204.242188 162 204.242188 162 Z "/>
<path style=" stroke:none;fill-rule:nonzero;fill:rgb(100%,100%,100%);fill-opacity:1;" d="M 204.257812 162 C 204.257812 162 204.257812 203 204.257812 203 C 204.257812 203 168.75 223.5 168.75 223.5 C 168.75 223.5 168.75 182.5 168.75 182.5 C 168.75 182.5 204.257812 162 204.257812 162 Z "/>
<path style=" stroke:none;fill-rule:nonzero;fill:rgb(100%,100%,100%);fill-opacity:1;" d="M 133.242188 162 C 133.242188 162 168.75 182.5 168.75 182.5 C 168.75 182.5 168.75 223.5 168.75 223.5 C 168.75 223.5 133.242188 203 133.242188 203 C 133.242188 203 133.242188 162 133.242188 162 Z "/>
<path style=" stroke:none;fill-rule:nonzero;fill:rgb(100%,100%,100%);fill-opacity:1;" d="M 133.242188 162 C 133.242188 162 168.75 141.5 168.75 141.5 C 168.75 141.5 204.257812 162 204.257812 162 C 204.257812 162 168.75 182.5 168.75 182.5 C 168.75 182.5 133.242188 162 133.242188 162 Z "/>
<path style=" stroke:none;fill-rule:nonzero;fill:rgb(70.196078%,93.72549%,95.294118%);fill-opacity:0.607843;" d="M 133.257812 162 C 133.257812 162 133.257812 203 133.257812 203 C 133.257812 203 97.75 223.5 97.75 223.5 C 97.75 223.5 97.75 182.5 97.75 182.5 C 97.75 182.5 133.257812 162 133.257812 162 Z "/>
<path style=" stroke:none;fill-rule:nonzero;fill:rgb(70.196078%,93.72549%,95.294118%);fill-opacity:0.313725;" d="M 62.242188 162 C 62.242188 162 97.75 182.5 97.75 182.5 C 97.75 182.5 97.75 223.5 97.75 223.5 C 97.75 223.5 62.242188 203 62.242188 203 C 62.242188 203 62.242188 162 62.242188 162 Z "/>
<path style=" stroke:none;fill-rule:nonzero;fill:rgb(70.196078%,93.72549%,95.294118%);fill-opacity:0.784314;" d="M 62.242188 162 C 62.242188 162 97.75 141.5 97.75 141.5 C 97.75 141.5 133.257812 162 133.257812 162 C 133.257812 162 97.75 182.5 97.75 182.5 C 97.75 182.5 62.242188 162 62.242188 162 Z "/>
<path style=" stroke:none;fill-rule:nonzero;fill:rgb(70.196078%,34.117647%,52.54902%);fill-opacity:0.607843;" d="M 239.757812 100.5 C 239.757812 100.5 239.757812 141.5 239.757812 141.5 C 239.757812 141.5 204.25 162 204.25 162 C 204.25 162 204.25 121 204.25 121 C 204.25 121 239.757812 100.5 239.757812 100.5 Z "/>
<path style=" stroke:none;fill-rule:nonzero;fill:rgb(70.196078%,34.117647%,52.54902%);fill-opacity:0.313725;" d="M 168.742188 100.5 C 168.742188 100.5 204.25 121 204.25 121 C 204.25 121 204.25 162 204.25 162 C 204.25 162 168.742188 141.5 168.742188 141.5 C 168.742188 141.5 168.742188 100.5 168.742188 100.5 Z "/>
<path style=" stroke:none;fill-rule:nonzero;fill:rgb(70.196078%,34.117647%,52.54902%);fill-opacity:0.784314;" d="M 168.742188 100.5 C 168.742188 100.5 204.25 80 204.25 80 C 204.25 80 239.757812 100.5 239.757812 100.5 C 239.757812 100.5 204.25 121 204.25 121 C 204.25 121 168.742188 100.5 168.742188 100.5 Z "/>
<path style=" stroke:none;fill-rule:nonzero;fill:rgb(93.72549%,15.686275%,38.039216%);fill-opacity:0.607843;" d="M 168.757812 100.5 C 168.757812 100.5 168.757812 141.5 168.757812 141.5 C 168.757812 141.5 133.25 162 133.25 162 C 133.25 162 133.25 121 133.25 121 C 133.25 121 168.757812 100.5 168.757812 100.5 Z "/>
<path style=" stroke:none;fill-rule:nonzero;fill:rgb(93.72549%,15.686275%,38.039216%);fill-opacity:0.313725;" d="M 97.742188 100.5 C 97.742188 100.5 133.25 121 133.25 121 C 133.25 121 133.25 162 133.25 162 C 133.25 162 97.742188 141.5 97.742188 141.5 C 97.742188 141.5 97.742188 100.5 97.742188 100.5 Z "/>
<path style=" stroke:none;fill-rule:nonzero;fill:rgb(93.72549%,15.686275%,38.039216%);fill-opacity:0.784314;" d="M 97.742188 100.5 C 97.742188 100.5 133.25 80 133.25 80 C 133.25 80 168.757812 100.5 168.757812 100.5 C 168.757812 100.5 133.25 121 133.25 121 C 133.25 121 97.742188 100.5 97.742188 100.5 Z "/>
<path style=" stroke:none;fill-rule:nonzero;fill:rgb(95.294118%,81.568627%,88.235294%);fill-opacity:0.607843;" d="M 97.757812 100.5 C 97.757812 100.5 97.757812 141.5 97.757812 141.5 C 97.757812 141.5 62.25 162 62.25 162 C 62.25 162 62.25 121 62.25 121 C 62.25 121 97.757812 100.5 97.757812 100.5 Z "/>
<path style=" stroke:none;fill-rule:nonzero;fill:rgb(95.294118%,81.568627%,88.235294%);fill-opacity:0.313725;" d="M 26.742188 100.5 C 26.742188 100.5 62.25 121 62.25 121 C 62.25 121 62.25 162 62.25 162 C 62.25 162 26.742188 141.5 26.742188 141.5 C 26.742188 141.5 26.742188 100.5 26.742188 100.5 Z "/>
<path style=" stroke:none;fill-rule:nonzero;fill:rgb(95.294118%,81.568627%,88.235294%);fill-opacity:0.784314;" d="M 26.742188 100.5 C 26.742188 100.5 62.25 80 62.25 80 C 62.25 80 97.757812 100.5 97.757812 100.5 C 97.757812 100.5 62.25 121 62.25 121 C 62.25 121 26.742188 100.5 26.742188 100.5 Z "/>
<path style=" stroke:none;fill-rule:nonzero;fill:rgb(10.980392%,72.156863%,7.058824%);fill-opacity:0.607843;" d="M 275.257812 39 C 275.257812 39 275.257812 80 275.257812 80 C 275.257812 80 239.75 100.5 239.75 100.5 C 239.75 100.5 239.75 59.5 239.75 59.5 C 239.75 59.5 275.257812 39 275.257812 39 Z "/>
<path style=" stroke:none;fill-rule:nonzero;fill:rgb(10.980392%,72.156863%,7.058824%);fill-opacity:0.313725;" d="M 204.242188 39 C 204.242188 39 239.75 59.5 239.75 59.5 C 239.75 59.5 239.75 100.5 239.75 100.5 C 239.75 100.5 204.242188 80 204.242188 80 C 204.242188 80 204.242188 39 204.242188 39 Z "/>
<path style=" stroke:none;fill-rule:nonzero;fill:rgb(10.980392%,72.156863%,7.058824%);fill-opacity:0.784314;" d="M 204.242188 39 C 204.242188 39 239.75 18.5 239.75 18.5 C 239.75 18.5 275.257812 39 275.257812 39 C 275.257812 39 239.75 59.5 239.75 59.5 C 239.75 59.5 204.242188 39 204.242188 39 Z "/>
<path style=" stroke:none;fill-rule:nonzero;fill:rgb(100%,100%,100%);fill-opacity:1;" d="M 204.257812 39 C 204.257812 39 204.257812 80 204.257812 80 C 204.257812 80 168.75 100.5 168.75 100.5 C 168.75 100.5 168.75 59.5 168.75 59.5 C 168.75 59.5 204.257812 39 204.257812 39 Z "/>
<path style=" stroke:none;fill-rule:nonzero;fill:rgb(100%,100%,100%);fill-opacity:1;" d="M 133.242188 39 C 133.242188 39 168.75 59.5 168.75 59.5 C 168.75 59.5 168.75 100.5 168.75 100.5 C 168.75 100.5 133.242188 80 133.242188 80 C 133.242188 80 133.242188 39 133.242188 39 Z "/>
<path style=" stroke:none;fill-rule:nonzero;fill:rgb(100%,100%,100%);fill-opacity:1;" d="M 133.242188 39 C 133.242188 39 168.75 18.5 168.75 18.5 C 168.75 18.5 204.257812 39 204.257812 39 C 204.257812 39 168.75 59.5 168.75 59.5 C 168.75 59.5 133.242188 39 133.242188 39 Z "/>
<path style=" stroke:none;fill-rule:nonzero;fill:rgb(89.803922%,3.921569%,24.705882%);fill-opacity:0.607843;" d="M 133.257812 39 C 133.257812 39 133.257812 80 133.257812 80 C 133.257812 80 97.75 100.5 97.75 100.5 C 97.75 100.5 97.75 59.5 97.75 59.5 C 97.75 59.5 133.257812 39 133.257812 39 Z "/>
<path style=" stroke:none;fill-rule:nonzero;fill:rgb(89.803922%,3.921569%,24.705882%);fill-opacity:0.313725;" d="M 62.242188 39 C 62.242188 39 97.75 59.5 97.75 59.5 C 97.75 59.5 97.75 100.5 97.75 100.5 C 97.75 100.5 62.242188 80 62.242188 80 C 62.242188 80 62.242188 39 62.242188 39 Z "/>
<path style=" stroke:none;fill-rule:nonzero;fill:rgb(89.803922%,3.921569%,24.705882%);fill-opacity:0.784314;" d="M 62.242188 39 C 62.242188 39 97.75 18.5 97.75 18.5 C 97.75 18.5 133.257812 39 133.257812 39 C 133.257812 39 97.75 59.5 97.75 59.5 C 97.75 59.5 62.242188 39 62.242188 39 Z "/>
</g>
</svg>
